# xmcd CD database file
#
# Track frame offsets:
#	150
#	29352
#	63429
#	84845
#	109009
#	137287
#	161643
#	191970
#	221316
#
# Disc length: 3184 seconds
#
# Revision: 0
# Processed by: cddbd v1.5.1PL0 Copyright (c) Steve Scherf et al.
# Submitted via: CDex 1.51
#
DISCID=710c6e09
DTITLE=Marc Vallée Trio - Hamadryade
DYEAR=2003
DGENRE=Jazz
TTITLE0=Tandara
TTITLE1=Lights of Barcelona
TTITLE2=Hamadryade
TTITLE3=Caméléon
TTITLE4=Harmattan
TTITLE5=Télescope
TTITLE6=Marcheurs D'espoir
TTITLE7=I Still Haven't Found What I'm Looking For
TTITLE8=Mariposa De Noche
EXTD=YEAR: 2003
EXTT0=
EXTT1=
EXTT2=
EXTT3=
EXTT4=
EXTT5=
EXTT6=
EXTT7=
EXTT8=
PLAYORDER=
